<?xml version="1.0" standalone="no"?>
<!DOCTYPE svg PUBLIC "-//W3C//DTD SVG 20010904//EN"
 "http://www.w3.org/TR/2001/REC-SVG-20010904/DTD/svg10.dtd">
<svg version="1.0" xmlns="http://www.w3.org/2000/svg"
 width="806.000000pt" height="689.000000pt" viewBox="0 0 806.000000 689.000000"
 preserveAspectRatio="xMidYMid meet">

<g transform="translate(0.000000,689.000000) scale(0.100000,-0.100000)"
fill="#ffffff" stroke="none">
<path d="M3905 6349 c-87 -8 -179 -29 -263 -60 -334 -122 -586 -456 -609 -804
l-6 -90 -147 -71 c-248 -121 -525 -323 -701 -511 -354 -377 -589 -858 -664
-1360 -19 -127 -19 -204 -1 -246 26 -64 112 -117 186 -117 39 1 103 34 133 69
31 38 40 71 56 211 62 537 384 1081 839 1418 113 83 348 222 377 222 2 0 17
-24 31 -52 167 -331 529 -538 901 -514 458 29 824 364 894 819 16 102 6 270
-21 372 -24 90 -92 240 -140 310 -148 216 -423 380 -670 400 -36 3 -76 7 -90
9 -14 1 -61 -1 -105 -5z m228 -395 c101 -26 175 -70 257 -153 121 -122 173
-246 171 -411 -1 -162 -51 -280 -171 -401 -115 -116 -242 -169 -405 -169 -158
0 -287 53 -401 165 -182 179 -226 444 -111 675 65 132 226 261 369 296 75 18
219 17 291 -2z"/>
<path d="M5245 5130 c-93 -46 -130 -173 -77 -263 10 -16 67 -68 127 -117 452
-361 731 -868 795 -1445 11 -97 13 -366 4 -401 -6 -21 -9 -22 -129 -16 -190 8
-331 -21 -488 -99 -327 -163 -527 -488 -527 -858 0 -180 40 -334 125 -481 122
-210 306 -357 540 -434 330 -107 700 -22 953 218 394 375 399 1008 10 1382
-40 38 -84 78 -97 86 l-24 17 13 160 c22 265 3 547 -51 781 -105 452 -343 878
-674 1204 -108 108 -275 242 -330 267 -53 24 -120 24 -170 -1z m809 -2635
c290 -76 481 -381 421 -670 -57 -276 -287 -464 -569 -465 -361 -1 -630 326
-565 686 37 204 214 394 419 448 73 20 221 20 294 1z"/>
<path d="M1980 2889 c-209 -15 -410 -105 -568 -253 -102 -97 -158 -174 -216
-297 -74 -156 -96 -278 -85 -464 20 -350 228 -658 542 -805 130 -61 213 -81
367 -87 161 -7 256 9 393 63 l88 36 72 -50 c252 -172 550 -304 857 -377 333
-79 749 -81 1094 -4 324 71 419 132 418 266 0 63 -21 103 -74 146 -56 45 -113
47 -246 8 -248 -72 -450 -97 -702 -88 -227 9 -378 35 -595 104 -146 46 -381
159 -503 241 -10 7 -3 24 33 75 103 148 154 300 162 487 6 145 -10 251 -58
384 -105 291 -371 525 -679 597 -69 17 -205 25 -300 18z m212 -390 c100 -21
195 -75 277 -158 118 -118 171 -244 171 -406 0 -162 -53 -288 -170 -405 -117
-117 -243 -170 -405 -170 -162 0 -288 53 -406 169 -119 118 -169 241 -169 413
0 160 51 280 170 398 83 83 163 132 256 154 72 17 204 20 276 5z"/>
</g>
</svg>
